<svg width="35" height="35" viewBox="0 0 35 35" fill="none" xmlns="http://www.w3.org/2000/svg">
<path d="M5.83334 26.25C5.42014 26.25 5.07403 26.11 4.79501 25.83C4.51598 25.55 4.37598 25.2039 4.37501 24.7917C4.37403 24.3794 4.51403 24.0333 4.79501 23.7533C5.07598 23.4733 5.42209 23.3333 5.83334 23.3333H29.1667C29.5799 23.3333 29.9265 23.4733 30.2065 23.7533C30.4865 24.0333 30.626 24.3794 30.625 24.7917C30.624 25.2039 30.484 25.5505 30.205 25.8315C29.926 26.1124 29.5799 26.2519 29.1667 26.25H5.83334ZM5.83334 18.9583C5.42014 18.9583 5.07403 18.8183 4.79501 18.5383C4.51598 18.2583 4.37598 17.9122 4.37501 17.5C4.37403 17.0878 4.51403 16.7417 4.79501 16.4617C5.07598 16.1817 5.42209 16.0417 5.83334 16.0417H29.1667C29.5799 16.0417 29.9265 16.1817 30.2065 16.4617C30.4865 16.7417 30.626 17.0878 30.625 17.5C30.624 17.9122 30.484 18.2588 30.205 18.5398C29.926 18.8208 29.5799 18.9603 29.1667 18.9583H5.83334ZM5.83334 11.6667C5.42014 11.6667 5.07403 11.5267 4.79501 11.2467C4.51598 10.9667 4.37598 10.6206 4.37501 10.2083C4.37403 9.79611 4.51403 9.45 4.79501 9.17C5.07598 8.89 5.42209 8.75 5.83334 8.75H29.1667C29.5799 8.75 29.9265 8.89 30.2065 9.17C30.4865 9.45 30.626 9.79611 30.625 10.2083C30.624 10.6206 30.484 10.9672 30.205 11.2481C29.926 11.5291 29.5799 11.6686 29.1667 11.6667H5.83334Z" fill="black"/>
</svg>
